<svg width="22" id="Layer_1" data-name="Layer 1" xmlns="http://www.w3.org/2000/svg" viewBox="0 0 128 128">
  <defs>
    <style>
      .cls-2{fill:#1d75b8}
    </style>
  </defs>
  <path d="M96.156 58.656c-.56-.074-1.118-.137-1.675-.202a30.88 30.88 0 0 0-4.784-11.506q.53-.663 1.05-1.335a93.742 93.742 0 0 0 2.776-3.721l-7.075-7.076a93.745 93.745 0 0 0-3.721 2.776q-.672.52-1.335 1.05a30.889 30.889 0 0 0-11.52-4.786q-.095-.836-.2-1.672c-.191-1.53-.4-3.062-.669-4.593H58.997a98.177 98.177 0 0 0-.669 4.593q-.106.836-.198 1.672a30.87 30.87 0 0 0-11.522 4.786q-.663-.531-1.335-1.05a93.697 93.697 0 0 0-3.719-2.776l-7.077 7.076a96.864 96.864 0 0 0 2.776 3.72q.522.67 1.05 1.334a30.896 30.896 0 0 0-4.787 11.522q-.836.094-1.67.2c-1.532.19-3.062.4-4.594.668v10.007c1.532.266 3.062.476 4.594.668q.836.106 1.67.199a30.88 30.88 0 0 0 4.779 11.51c-.353.444-.705.887-1.05 1.337a95.351 95.351 0 0 0-2.768 3.728l7.077 7.076a93.805 93.805 0 0 0 3.729-2.766c.45-.345.893-.698 1.336-1.05a30.887 30.887 0 0 0 11.497 4.775c.063.557.128 1.116.202 1.674.194 1.531.406 3.062.679 4.593h10.006c.273-1.531.487-3.062.68-4.593.075-.558.138-1.117.203-1.674a30.89 30.89 0 0 0 11.495-4.775c.443.352.888.705 1.338 1.05a91.611 91.611 0 0 0 3.729 2.766l7.075-7.076a92.353 92.353 0 0 0-2.768-3.728c-.345-.451-.697-.895-1.048-1.338a30.888 30.888 0 0 0 4.774-11.496c.557-.064 1.116-.127 1.675-.201a92.529 92.529 0 0 0 4.592-.68V59.337a92.5 92.5 0 0 0-4.592-.68ZM73.87 83.777a21.799 21.799 0 0 1-29.308-9.57 21.402 21.402 0 0 1-1.296-3.125 21.738 21.738 0 0 1 1.307-16.632 21.94 21.94 0 0 1 9.537-9.538 21.472 21.472 0 0 1 3.147-1.308 21.833 21.833 0 0 1 13.488.001 21.447 21.447 0 0 1 3.145 1.307 21.94 21.94 0 0 1 9.537 9.538 21.732 21.732 0 0 1 .01 19.758 21.945 21.945 0 0 1-9.567 9.57Z" style="fill:#2d3e50"/>
  <path class="cls-2" d="M119.08 37.409A61.178 61.178 0 0 0 97.54 13.352a60.227 60.227 0 0 0-50.851-6.85A59.76 59.76 0 0 0 9.407 40.87l4.595 1.941A54.215 54.215 0 0 1 34.28 19.104a53.237 53.237 0 0 1 58.907.798 52.856 52.856 0 0 1 18.294 21.894l-5.755 3.322 17.23 7.272 1.976-18.36ZM8.92 90.591a61.178 61.178 0 0 0 21.539 24.057 60.227 60.227 0 0 0 50.851 6.85 59.76 59.76 0 0 0 37.283-34.368l-4.595-1.941a54.215 54.215 0 0 1-20.278 23.707 53.237 53.237 0 0 1-58.907-.798 52.856 52.856 0 0 1-18.294-21.894l5.755-3.322-17.23-7.272-1.976 18.36Z"/>
</svg>