<svg id="Calque_2" data-name="Calque 2" xmlns="http://www.w3.org/2000/svg" viewBox="0 0 401 401"><defs><style>.cls-1{fill:none;stroke:#fff;stroke-miterlimit:10;}.cls-2{fill:#19b3ff;}</style></defs><title>logo_couches2</title><circle class="cls-1" cx="200.5" cy="200.5" r="200"/><path class="cls-2" d="M341.53,330.18a192.76,192.76,0,0,0,17.35-21.83l-64.76-44.14a113.79,113.79,0,0,1-171.26,19.63L69.77,341.48a195.84,195.84,0,0,0,46.7,31.79,187.19,187.19,0,0,0,56,17.08,195.9,195.9,0,0,0,60.12-.8,190.32,190.32,0,0,0,55.93-18.8,193.07,193.07,0,0,0,48-35.38Q339.1,332.82,341.53,330.18Z" transform="translate(0.5 0.46)"/></svg>