<svg width="28" height="28" viewBox="0 0 28 28" fill="none" xmlns="http://www.w3.org/2000/svg">
<path d="M14 26.5C20.9036 26.5 26.5 20.9036 26.5 14C26.5 7.09644 20.9036 1.5 14 1.5C7.09644 1.5 1.5 7.09644 1.5 14C1.5 20.9036 7.09644 26.5 14 26.5Z" stroke="#19B3FF" stroke-width="1.5" stroke-linecap="round" stroke-linejoin="round"/>
<path d="M12.5635 15.8652C12.5635 15.2158 12.644 14.6982 12.8052 14.3125C12.9663 13.9268 13.2837 13.5044 13.7573 13.0454C14.2358 12.5815 14.5386 12.252 14.6655 12.0566C14.8608 11.7588 14.9585 11.4365 14.9585 11.0898C14.9585 10.6309 14.8438 10.2817 14.6143 10.0425C14.3896 9.7983 14.0576 9.6763 13.6182 9.6763C13.1982 9.6763 12.8589 9.7959 12.6001 10.0352C12.3462 10.2695 12.2192 10.5894 12.2192 10.9946H10.4395C10.4492 10.1304 10.7422 9.4468 11.3184 8.94385C11.8994 8.44092 12.666 8.18945 13.6182 8.18945C14.5996 8.18945 15.3638 8.43848 15.9106 8.93652C16.4624 9.4346 16.7383 10.1304 16.7383 11.0239C16.7383 11.8198 16.3672 12.6035 15.625 13.375L14.7241 14.2612C14.4019 14.6274 14.2358 15.1621 14.2261 15.8652H12.5635ZM12.439 18.1431C12.439 17.855 12.5293 17.623 12.71 17.4473C12.8906 17.2666 13.1348 17.1763 13.4424 17.1763C13.7549 17.1763 14.0015 17.269 14.1821 17.4546C14.3628 17.6353 14.4531 17.8647 14.4531 18.1431C14.4531 18.4116 14.3652 18.6362 14.1895 18.8169C14.0137 18.9976 13.7646 19.0879 13.4424 19.0879C13.1201 19.0879 12.8711 18.9976 12.6953 18.8169C12.5244 18.6362 12.439 18.4116 12.439 18.1431Z" fill="#19B3FF"/>
</svg>
