<svg width="16" height="16" viewBox="0 0 16 16" fill="none" xmlns="http://www.w3.org/2000/svg">
<g clip-path="url(#clip0_1962_65091)">
<rect width="16" height="16" fill="white" fill-opacity="0.01"/>
<path d="M11.7442 10.3451C12.7125 9.02376 13.1462 7.38557 12.9585 5.75823C12.7708 4.13089 11.9756 2.63442 10.732 1.56821C9.48833 0.501998 7.88796 -0.0553194 6.25105 0.00775377C4.61413 0.0708269 3.06139 0.749639 1.90348 1.90838C0.745562 3.06713 0.0678606 4.62035 0.00595879 6.25731C-0.055943 7.89427 0.502519 9.49424 1.56962 10.7371C2.63672 11.98 4.13375 12.7741 5.76123 12.9607C7.3887 13.1472 9.02659 12.7123 10.3472 11.7431H10.3462C10.3762 11.7831 10.4082 11.8211 10.4442 11.8581L14.2942 15.7081C14.4817 15.8957 14.7361 16.0012 15.0014 16.0013C15.2666 16.0014 15.5211 15.8961 15.7087 15.7086C15.8964 15.5211 16.0018 15.2667 16.0019 15.0014C16.002 14.7362 15.8967 14.4817 15.7092 14.2941L11.8592 10.4441C11.8235 10.4079 11.785 10.3745 11.7442 10.3441V10.3451ZM12.0022 6.50108C12.0022 7.22335 11.8599 7.93855 11.5835 8.60584C11.3071 9.27313 10.902 9.87944 10.3913 10.3902C9.88058 10.9009 9.27426 11.306 8.60697 11.5824C7.93968 11.8588 7.22448 12.0011 6.50221 12.0011C5.77994 12.0011 5.06474 11.8588 4.39745 11.5824C3.73016 11.306 3.12384 10.9009 2.61312 10.3902C2.1024 9.87944 1.69727 9.27313 1.42087 8.60584C1.14447 7.93855 1.00221 7.22335 1.00221 6.50108C1.00221 5.04239 1.58167 3.64344 2.61312 2.61199C3.64457 1.58054 5.04352 1.00108 6.50221 1.00108C7.9609 1.00108 9.35985 1.58054 10.3913 2.61199C11.4227 3.64344 12.0022 5.04239 12.0022 6.50108Z" fill="#737373"/>
</g>
<defs>
<clipPath id="clip0_1962_65091">
<rect width="16" height="16" fill="white"/>
</clipPath>
</defs>
</svg>
