<svg width="28" height="5" viewBox="0 0 28 5" fill="none" xmlns="http://www.w3.org/2000/svg">
<path d="M12.971 1.61739L8.04587 4.57248C7.57962 4.85223 7.04611 5 6.50238 5L21.4976 5C20.9539 5 20.4204 4.85222 19.9541 4.57248L15.029 1.61739C14.3956 1.23738 13.6044 1.23738 12.971 1.61739Z" fill="black" fill-opacity="0.3"/>
<path fill-rule="evenodd" clip-rule="evenodd" d="M6.66039 4L4 4L4 5L6.66039 5C7.53099 5 8.38289 4.74746 9.11284 4.273L12.6375 1.98195C13.466 1.44343 14.534 1.44343 15.3625 1.98195L18.8872 4.27299C19.6171 4.74746 20.469 5 21.3396 5L24 5L24 4L21.3396 4C20.6625 4 19.9999 3.80358 19.4321 3.43455L15.9075 1.1435C14.7476 0.389575 13.2524 0.389576 12.0925 1.14351L8.56785 3.43455C8.00012 3.80358 7.33752 4 6.66039 4Z" fill="black" fill-opacity="0.3"/>
</svg>
